<svg xmlns="http://www.w3.org/2000/svg" viewBox="0 0 260 72" role="img" aria-label="Cloudflare logo">
  <rect width="260" height="72" fill="none"/>
  <path d="M22 45h76c9 0 16-6 16-14s-7-14-16-14c-6 0-11 3-14 7-4-9-13-15-24-15-14 0-26 10-28 24-6 1-10 6-10 12z" fill="#f6821f"/>
  <path d="M49 45h79c7 0 12-4 12-10s-5-10-12-10h-8c-3-10-13-17-25-17-13 0-24 8-27 20-9 0-17 7-19 17z" fill="#fbad41"/>
  <text x="150" y="45" fill="#1d1d1d" font-family="Arial, Helvetica, sans-serif" font-size="27" font-weight="700">Cloudflare</text>
</svg>
